<svg width="194" height="44" viewBox="0 0 194 44" fill="none" xmlns="http://www.w3.org/2000/svg">
<path d="M174 15L184.208 25L194 35H174V15Z" fill="#AAC0F9"/>
<path fill-rule="evenodd" clip-rule="evenodd" d="M179 15H174V20H179V25H184V30H189V35H194V30H189V25H184V20H179V15Z" fill="#245CEC"/>
<path d="M12.9103 15.3635V19.4544H0.791016V15.3635H12.9103ZM3.56516 34.9998V13.9444C3.56516 12.5211 3.84215 11.3407 4.39613 10.4032C4.95863 9.46573 5.72567 8.76261 6.69727 8.29386C7.66886 7.82511 8.77255 7.59073 10.0083 7.59073C10.8436 7.59073 11.6064 7.65465 12.2967 7.78249C12.9956 7.91033 13.5154 8.02539 13.8564 8.12766L12.8848 12.2186C12.6717 12.1504 12.4075 12.0865 12.0922 12.0268C11.7853 11.9672 11.47 11.9373 11.1461 11.9373C10.345 11.9373 9.78675 12.1248 9.47141 12.4998C9.15607 12.8663 8.9984 13.3819 8.9984 14.0467V34.9998H3.56516Z" fill="black"/>
<path d="M22.6064 35.3833C20.6206 35.3833 18.9033 34.9615 17.4544 34.1177C16.0141 33.2654 14.9019 32.0808 14.1178 30.5637C13.3337 29.0382 12.9417 27.2697 12.9417 25.2583C12.9417 23.2299 13.3337 21.4572 14.1178 19.9402C14.9019 18.4146 16.0141 17.2299 17.4544 16.3862C18.9033 15.5339 20.6206 15.1078 22.6064 15.1078C24.5922 15.1078 26.3053 15.5339 27.7456 16.3862C29.1945 17.2299 30.311 18.4146 31.0951 19.9402C31.8792 21.4572 32.2712 23.2299 32.2712 25.2583C32.2712 27.2697 31.8792 29.0382 31.0951 30.5637C30.311 32.0808 29.1945 33.2654 27.7456 34.1177C26.3053 34.9615 24.5922 35.3833 22.6064 35.3833ZM22.632 31.1646C23.5354 31.1646 24.2897 30.9089 24.8948 30.3976C25.4999 29.8777 25.9559 29.1703 26.2627 28.2754C26.578 27.3805 26.7357 26.362 26.7357 25.22C26.7357 24.0779 26.578 23.0595 26.2627 22.1646C25.9559 21.2697 25.4999 20.5623 24.8948 20.0424C24.2897 19.5226 23.5354 19.2626 22.632 19.2626C21.7201 19.2626 20.953 19.5226 20.3309 20.0424C19.7172 20.5623 19.2527 21.2697 18.9374 22.1646C18.6306 23.0595 18.4772 24.0779 18.4772 25.22C18.4772 26.362 18.6306 27.3805 18.9374 28.2754C19.2527 29.1703 19.7172 29.8777 20.3309 30.3976C20.953 30.9089 21.7201 31.1646 22.632 31.1646Z" fill="black"/>
<path d="M34.0124 34.9998V15.3635H39.2922V18.7896H39.4968C39.8547 17.5708 40.4556 16.6504 41.2993 16.0282C42.1431 15.3976 43.1147 15.0822 44.2141 15.0822C44.4868 15.0822 44.7809 15.0993 45.0962 15.1333C45.4115 15.1674 45.6885 15.2143 45.9272 15.274V20.1064C45.6715 20.0297 45.3178 19.9615 44.8661 19.9018C44.4144 19.8422 44.001 19.8123 43.626 19.8123C42.8249 19.8123 42.109 19.987 41.4783 20.3365C40.8561 20.6774 40.3618 21.1547 39.9953 21.7683C39.6374 22.3819 39.4584 23.0893 39.4584 23.8904V34.9998H34.0124Z" fill="black"/>
<path d="M46.9429 34.9998V15.3635H52.1332V18.8279H52.3633C52.7724 17.6774 53.4542 16.7697 54.4088 16.1049C55.3633 15.4402 56.5054 15.1078 57.8349 15.1078C59.1815 15.1078 60.3278 15.4444 61.2738 16.1177C62.2198 16.7825 62.8505 17.6859 63.1659 18.8279H63.3704C63.771 17.7029 64.4954 16.8038 65.5437 16.1305C66.6005 15.4487 67.8491 15.1078 69.2895 15.1078C71.1218 15.1078 72.6091 15.6916 73.7511 16.8592C74.9017 18.0183 75.477 19.6632 75.477 21.7939V34.9998H70.0437V22.8677C70.0437 21.7768 69.7539 20.9586 69.1744 20.4132C68.5948 19.8677 67.8704 19.595 67.0011 19.595C66.0125 19.595 65.2412 19.9103 64.6872 20.541C64.1332 21.1632 63.8562 21.9856 63.8562 23.0083V34.9998H58.5764V22.7527C58.5764 21.7896 58.2994 21.0226 57.7454 20.4515C57.2 19.8805 56.4798 19.595 55.5849 19.595C54.9798 19.595 54.4343 19.7484 53.9485 20.0552C53.4713 20.3535 53.092 20.7754 52.8108 21.3208C52.5295 21.8578 52.3889 22.4885 52.3889 23.2129V34.9998H46.9429Z" fill="black"/>
<path d="M94.9554 15.3635V19.4544H83.1301V15.3635H94.9554ZM85.8148 10.6589H91.2608V28.9657C91.2608 29.4686 91.3375 29.8606 91.4909 30.1419C91.6444 30.4146 91.8574 30.6064 92.1301 30.7172C92.4114 30.8279 92.7353 30.8833 93.1017 30.8833C93.3574 30.8833 93.6131 30.862 93.8688 30.8194C94.1245 30.7683 94.3205 30.7299 94.4569 30.7044L95.3134 34.7569C95.0407 34.8422 94.6571 34.9402 94.1628 35.051C93.6685 35.1703 93.0676 35.2427 92.3603 35.2683C91.0478 35.3194 89.8972 35.1447 88.9086 34.7441C87.9284 34.3436 87.1657 33.7214 86.6202 32.8777C86.0748 32.0339 85.8063 30.9686 85.8148 29.6816V10.6589Z" fill="black"/>
<path d="M102.571 23.6476V34.9998H97.1249V8.818H102.418V18.8279H102.648C103.091 17.6689 103.807 16.7612 104.795 16.1049C105.784 15.4402 107.024 15.1078 108.516 15.1078C109.879 15.1078 111.068 15.4061 112.082 16.0027C113.105 16.5907 113.898 17.4387 114.46 18.5467C115.031 19.6461 115.312 20.9629 115.304 22.497V34.9998H109.858V23.4686C109.866 22.2583 109.56 21.3166 108.937 20.6433C108.324 19.97 107.463 19.6333 106.355 19.6333C105.614 19.6333 104.957 19.791 104.386 20.1064C103.824 20.4217 103.381 20.8819 103.057 21.487C102.741 22.0836 102.579 22.8038 102.571 23.6476Z" fill="black"/>
<path d="M117.79 34.9998V15.3635H123.236V34.9998H117.79ZM120.526 12.8322C119.716 12.8322 119.021 12.5637 118.442 12.0268C117.871 11.4814 117.585 10.8294 117.585 10.0708C117.585 9.32085 117.871 8.67738 118.442 8.14045C119.021 7.59499 119.716 7.32227 120.526 7.32227C121.335 7.32227 122.026 7.59499 122.597 8.14045C123.176 8.67738 123.466 9.32085 123.466 10.0708C123.466 10.8294 123.176 11.4814 122.597 12.0268C122.026 12.5637 121.335 12.8322 120.526 12.8322Z" fill="black"/>
<path d="M131.244 23.6476V34.9998H125.798V15.3635H130.989V18.8279H131.219C131.653 17.6859 132.382 16.7825 133.405 16.1177C134.428 15.4444 135.668 15.1078 137.125 15.1078C138.489 15.1078 139.678 15.4061 140.692 16.0027C141.706 16.5993 142.494 17.4515 143.057 18.5595C143.619 19.6589 143.901 20.9714 143.901 22.497V34.9998H138.455V23.4686C138.463 22.2669 138.156 21.3294 137.534 20.6561C136.912 19.9743 136.055 19.6333 134.965 19.6333C134.232 19.6333 133.584 19.791 133.021 20.1064C132.467 20.4217 132.033 20.8819 131.717 21.487C131.411 22.0836 131.253 22.8038 131.244 23.6476Z" fill="black"/>
<path d="M155.239 42.7726C153.475 42.7726 151.962 42.5297 150.701 42.0439C149.448 41.5666 148.451 40.9146 147.71 40.0879C146.968 39.2612 146.487 38.3322 146.265 37.301L151.302 36.6234C151.455 37.0154 151.698 37.3819 152.031 37.7228C152.363 38.0637 152.802 38.3365 153.347 38.541C153.901 38.7541 154.575 38.8606 155.367 38.8606C156.552 38.8606 157.528 38.5708 158.295 37.9913C159.07 37.4203 159.458 36.4615 159.458 35.1149V31.5226H159.228C158.989 32.068 158.632 32.5836 158.154 33.0694C157.677 33.5552 157.063 33.9515 156.313 34.2583C155.563 34.5652 154.668 34.7186 153.629 34.7186C152.154 34.7186 150.812 34.3777 149.602 33.6958C148.4 33.0055 147.441 31.9529 146.725 30.5382C146.018 29.1149 145.664 27.3166 145.664 25.1433C145.664 22.9189 146.026 21.0609 146.751 19.5694C147.475 18.0779 148.438 16.9615 149.64 16.22C150.85 15.4785 152.176 15.1078 153.616 15.1078C154.715 15.1078 155.636 15.2953 156.377 15.6703C157.119 16.0368 157.715 16.497 158.167 17.051C158.627 17.5964 158.981 18.1333 159.228 18.6618H159.433V15.3635H164.84V35.1916C164.84 36.862 164.431 38.2598 163.613 39.3848C162.795 40.5098 161.661 41.3535 160.212 41.916C158.772 42.487 157.114 42.7726 155.239 42.7726ZM155.355 30.6277C156.232 30.6277 156.974 30.4103 157.579 29.9757C158.193 29.5325 158.661 28.9018 158.985 28.0836C159.318 27.2569 159.484 26.2683 159.484 25.1177C159.484 23.9672 159.322 22.97 158.998 22.1262C158.674 21.274 158.205 20.6135 157.592 20.1447C156.978 19.676 156.232 19.4416 155.355 19.4416C154.46 19.4416 153.705 19.6845 153.092 20.1703C152.478 20.6476 152.014 21.3123 151.698 22.1646C151.383 23.0169 151.225 24.0012 151.225 25.1177C151.225 26.2512 151.383 27.2314 151.698 28.0581C152.022 28.8762 152.487 29.5112 153.092 29.9629C153.705 30.4061 154.46 30.6277 155.355 30.6277Z" fill="black"/>
</svg>
