<svg width="228" height="67" viewBox="0 0 228 67" fill="none" xmlns="http://www.w3.org/2000/svg">
<path d="M197.801 22.8408L213.215 38.0681L227.999 53.2954H197.801V22.8408Z" fill="#FABCFF"/>
<rect x="205.352" y="30.4541" width="7.54967" height="7.61363" fill="#EE2DFF"/>
<rect x="212.9" y="38.0684" width="7.54967" height="7.61364" fill="#EE2DFF"/>
<rect x="220.451" y="45.6816" width="7.54967" height="7.61364" fill="#EE2DFF"/>
<rect x="197.801" y="22.8408" width="7.54967" height="7.61364" fill="#EE2DFF"/>
<path d="M19.2251 23.3949V29.6243H0.925781V23.3949H19.2251ZM5.11456 53.2958V21.2341C5.11456 19.0668 5.5328 17.2694 6.36926 15.8419C7.2186 14.4143 8.37679 13.3436 9.84383 12.6299C11.3109 11.9161 12.9774 11.5592 14.8433 11.5592C16.1045 11.5592 17.2562 11.6565 18.2986 11.8512C19.3538 12.0459 20.1388 12.2211 20.6536 12.3768L19.1865 18.6061C18.8648 18.5023 18.4659 18.405 17.9897 18.3141C17.5265 18.2233 17.0503 18.1779 16.5613 18.1779C15.3517 18.1779 14.5088 18.4634 14.0326 19.0344C13.5565 19.5924 13.3184 20.3776 13.3184 21.3899V53.2958H5.11456Z" fill="black"/>
<path d="M35.4963 53.8798C32.4979 53.8798 29.9049 53.2374 27.7172 51.9526C25.5424 50.6548 23.863 48.8509 22.6791 46.5408C21.4951 44.2178 20.9032 41.5249 20.9032 38.4621C20.9032 35.3734 21.4951 32.6741 22.6791 30.364C23.863 28.041 25.5424 26.2371 27.7172 24.9523C29.9049 23.6545 32.4979 23.0056 35.4963 23.0056C38.4948 23.0056 41.0814 23.6545 43.2562 24.9523C45.4439 26.2371 47.1297 28.041 48.3136 30.364C49.4975 32.6741 50.0895 35.3734 50.0895 38.4621C50.0895 41.5249 49.4975 44.2178 48.3136 46.5408C47.1297 48.8509 45.4439 50.6548 43.2562 51.9526C41.0814 53.2374 38.4948 53.8798 35.4963 53.8798ZM35.5349 47.4558C36.899 47.4558 38.0379 47.0664 38.9516 46.2878C39.8653 45.4961 40.5538 44.419 41.017 43.0563C41.4932 41.6936 41.7312 40.1428 41.7312 38.4037C41.7312 36.6647 41.4932 35.1139 41.017 33.7512C40.5538 32.3885 39.8653 31.3114 38.9516 30.5197C38.0379 29.7281 36.899 29.3323 35.5349 29.3323C34.158 29.3323 32.9998 29.7281 32.0604 30.5197C31.1338 31.3114 30.4325 32.3885 29.9563 33.7512C29.4931 35.1139 29.2614 36.6647 29.2614 38.4037C29.2614 40.1428 29.4931 41.6936 29.9563 43.0563C30.4325 44.419 31.1338 45.4961 32.0604 46.2878C32.9998 47.0664 34.158 47.4558 35.5349 47.4558Z" fill="black"/>
<path d="M54.3493 53.2958V23.3949H62.3215V28.612H62.6304C63.1709 26.7562 64.0781 25.3546 65.3521 24.4072C66.6261 23.4468 68.0932 22.9667 69.7532 22.9667C70.165 22.9667 70.609 22.9926 71.0851 23.0445C71.5613 23.0964 71.9795 23.1678 72.3398 23.2587V30.6171C71.9538 30.5003 71.4197 30.3965 70.7377 30.3056C70.0556 30.2148 69.4315 30.1693 68.8653 30.1693C67.6556 30.1693 66.5746 30.4354 65.6224 30.9675C64.6829 31.4866 63.9365 32.2133 63.3832 33.1477C62.8427 34.0821 62.5725 35.1593 62.5725 36.3792V53.2958H54.3493Z" fill="black"/>
<path d="M75.5042 53.2958V23.3949H83.3413V28.6704H83.6887C84.3064 26.9184 85.3359 25.5363 86.7772 24.524C88.2185 23.5117 89.9429 23.0056 91.9505 23.0056C93.9837 23.0056 95.7146 23.5182 97.143 24.5435C98.5714 25.5557 99.5237 26.9314 99.9999 28.6704H100.309C100.914 26.9573 102.007 25.5882 103.59 24.5629C105.186 23.5247 107.071 23.0056 109.246 23.0056C112.013 23.0056 114.258 23.8946 115.983 25.6725C117.72 27.4375 118.589 29.9422 118.589 33.1867V53.2958H110.385V34.8219C110.385 33.1607 109.947 31.9149 109.072 31.0843C108.197 30.2537 107.103 29.8384 105.791 29.8384C104.298 29.8384 103.133 30.3186 102.297 31.2789C101.46 32.2263 101.042 33.4787 101.042 35.036V53.2958H93.0701V34.6467C93.0701 33.1802 92.6518 32.0122 91.8153 31.1427C90.9917 30.2732 89.9043 29.8384 88.5531 29.8384C87.6394 29.8384 86.8158 30.072 86.0823 30.5392C85.3617 30.9934 84.789 31.6358 84.3643 32.4664C83.9397 33.284 83.7273 34.2444 83.7273 35.3475V53.2958H75.5042Z" fill="black"/>
<path d="M131.448 44.6915L131.467 34.744H132.664L142.161 23.3949H151.601L138.841 38.4232H136.892L131.448 44.6915ZM123.997 53.2958V13.428H132.22V53.2958H123.997ZM142.528 53.2958L133.803 40.2726L139.285 34.4131L152.16 53.2958H142.528Z" fill="black"/>
<path d="M154.548 53.2958V23.3949H162.771V53.2958H154.548ZM158.679 19.5405C157.456 19.5405 156.407 19.1317 155.532 18.3141C154.67 17.4836 154.239 16.4908 154.239 15.3357C154.239 14.1937 154.67 13.2139 155.532 12.3963C156.407 11.5657 157.456 11.1504 158.679 11.1504C159.901 11.1504 160.944 11.5657 161.806 12.3963C162.681 13.2139 163.118 14.1937 163.118 15.3357C163.118 16.4908 162.681 17.4836 161.806 18.3141C160.944 19.1317 159.901 19.5405 158.679 19.5405Z" fill="black"/>
<path d="M184.042 23.3949V29.6243H166.186V23.3949H184.042ZM170.24 16.2312H178.463V44.1075C178.463 44.8732 178.579 45.4702 178.811 45.8984C179.042 46.3137 179.364 46.6057 179.776 46.7744C180.2 46.9431 180.689 47.0275 181.243 47.0275C181.629 47.0275 182.015 46.995 182.401 46.9302C182.787 46.8523 183.083 46.7939 183.289 46.755L184.582 52.9259C184.17 53.0557 183.591 53.2049 182.845 53.3736C182.098 53.5553 181.191 53.6656 180.123 53.7046C178.141 53.7824 176.404 53.5164 174.911 52.9064C173.431 52.2965 172.28 51.3491 171.456 50.0643C170.632 48.7795 170.227 47.1573 170.24 45.1976V16.2312Z" fill="black"/>
</svg>
